<?xml version="1.0" encoding="UTF-8"?>
<svg viewBox="0 0 108.97 138.66" xmlns="http://www.w3.org/2000/svg">
 <defs>
  <linearGradient id="j" x1=".8892" x2=".024931" y1="-.3785" y2="1.4255">
   <stop offset="0"/>
   <stop stop-opacity="0" offset="1"/>
  </linearGradient>
  <linearGradient id="i" x1="3.4812" x2="-.34823" y2=".75694">
   <stop stop-color="#fff" offset="0"/>
   <stop stop-color="#fff" stop-opacity="0" offset="1"/>
  </linearGradient>
  <linearGradient id="h" x1="1e-6" x2=".94994" y1="-2.1658" y2=".91742">
   <stop stop-color="#fff" offset="0"/>
   <stop stop-color="#fff" stop-opacity="0" offset="1"/>
  </linearGradient>
  <radialGradient id="m" cx="396.77" cy="645.92" r="40.475" gradientTransform="matrix(-.15896 -.95143 2.6295 -.34798 -1257.3 1247.9)" gradientUnits="userSpaceOnUse">
   <stop stop-color="#fff" offset="0"/>
   <stop stop-color="#fff" stop-opacity="0" offset="1"/>
  </radialGradient>
  <radialGradient id="l" cx="395.56" cy="878.23" r="272.12" gradientTransform="matrix(1.0001 -6.2535e-6 0 .53096 -19.839 179.84)" gradientUnits="userSpaceOnUse">
   <stop stop-color="#fff" offset="0"/>
   <stop stop-color="#fff" stop-opacity="0" offset="1"/>
  </radialGradient>
  <radialGradient id="n" cx="395.62" cy="647.61" r="34.6" gradientTransform="matrix(1 -1.1594e-6 1.0938e-6 .69965 -.00070834 194.51)" gradientUnits="userSpaceOnUse">
   <stop stop-color="#fff" offset="0"/>
   <stop stop-color="#fff" stop-opacity="0" offset="1"/>
  </radialGradient>
  <radialGradient id="k" cx="418.21" cy="116.89" r="117.84" gradientTransform="matrix(1.4515 -1.273 .053811 .061359 -296.68 687.33)" gradientUnits="userSpaceOnUse">
   <stop stop-color="#fff" offset="0"/>
   <stop stop-color="#fff" stop-opacity="0" offset="1"/>
  </radialGradient>
 </defs>
 <g fill-rule="evenodd" stroke="#000">
  <path d="m49.234 63.625c-27.838 0.79013-49.674 46.376-39.376 61.835s70.722 15.459 80.566 0c9.8441-15.459-12.446-62.651-41.19-61.835z" fill="#fff" stroke-width="3.222"/>
  <path d="m28.51 72.931h46.403s0.74048 46.102-15.797 46.102c-15.55 0-30.606-46.102-30.606-46.102z" fill="#3f007f" stroke-width="3.479"/>
 </g>
 <path d="m33.96 88.949c-3.0039 3.083-6.633 7.5069-6.633 12.109 0 6.2828 7.6006 5.1178 11.63 6.4009-4.9862 6.672-9.1841 6.6624-1.7946 13.336 3.3582 3.0348 7.0071 5.7359 10.717 8.2924 2.4726 1.706 10.194 8.5334 13.074 8.1744 2.3482-0.29034 6.1309-4.7419 7.8-6.3298 3.9376-3.7408 7.5514-7.8696 10.812-12.243 4.7516-6.3744 8.1308-10.495-0.89148-13.744 5.6571-3.7384 6.8019-6.3877 1.8216-11.861-1.4052-1.5457-4.0325-4.6576-6.2623-4.8564-2.4092-0.21567-1.9365 8.2165-2.1547 9.8694-1.4932 11.297-5.0906 22.853-11.372 32.352-8.8581-13.867-18.464-27.73-25.638-42.619-0.36832 0.3747-0.7366 0.74695-1.1084 1.1192m3.5904 22.974c6.1498-5.1805 3.2631-6.5804-3.2115-7.6189-7.983-1.2807-3.5493-8.2852 0.16772-12.534 7.6781 14.69 16.929 28.713 25.974 42.546-7.0013-4.0842-13.863-8.5659-20.108-13.807-3.8086-3.2011-7.3989-4.7889-2.8221-8.5864m24.021 21.311c8.7783-11.588 12.655-27.754 13.41-42.096 2.8385 2.0903 9.6404 7.4997 4.7622 10.516-9.434 5.8323 1.3266 3.3794 2.9804 7.684-0.56183 3.8516-5.358 8.543-7.6511 11.339-4.0115 4.8974-8.9378 10.855-14.415 13.748 0.30377-0.39755 0.60876-0.79514 0.9137-1.1915" fill="#383838" stroke-width="3.2"/>
 <g transform="matrix(-.082877 .089492 -.089492 -.082877 590.86 449.55)">
  <g fill-rule="evenodd">
   <g stroke="#8f9088" stroke-width="3">
    <path d="m850.37 4774.1l3.9169-7.834c11.316 5.2227 24.59 9.7925 37.211 16.974 15.45 7.834 12.621 35.253 11.098 45.045-21.87 100.86-60.06 159.94-97.598 208.58l-9.7925-6.5283c46.568-63.434 78.775-128.17 92.702-190.95 2.8289-13.057 11.533-42.434-1.9585-49.615-9.9012-5.8755-25.678-12.404-35.579-15.668z" fill="#b1b7c5"/>
    <path d="m939.81 4834.8l5.8755-3.917c-4.1346-5.6582-12.839-17.844-18.932-23.502-6.9634-5.8755-24.372-5.2227-35.906 2.6113-104.1 58.928-149.72 119.25-180.83 150.8l9.1396 9.1396c64.63-69.418 113.16-118.16 178.88-154.07 5.8755-2.8291 18.279-6.311 26.766 0 4.1346 4.5698 12.186 14.362 15.015 18.932z" fill="url(#j)"/>
   </g>
   <path d="m836.01 4776.4c7.834 5.0054 17.626 1.5234 20.891-3.9165 1.4465-4.0967-0.49579-15.964-11.098-15.668-6.9635-1.3057-7.6164-10.881-18.932-12.404-9.1396 0-13.057 9.7925-13.709 15.015 0 6.0928 1.9585 11.533 7.1811 16.32 6.9636 1.7412 11.316-1.0879 15.668 0.65283z" stroke="#000"/>
   <path d="m939.72 4835.5l5.8755-3.917c-4.1346-5.6582-12.839-17.844-18.932-23.502-6.9636-5.8755-24.372-5.2227-35.906 2.6113-104.1 58.928-149.72 119.25-180.83 150.8l9.1396 9.1396c64.63-69.418 113.16-118.16 178.88-154.07 5.8754-2.8291 18.279-6.311 26.766 0 4.1346 4.5698 12.186 14.362 15.015 18.932z" fill="#b1b7c5"/>
   <g stroke="#000">
    <path d="m937.52 4829.9c-4.3522 3.2642-2.829 16.321 2.6113 20.238 2.3937 5.6577 0.87042 9.1396 3.917 13.057 3.0466 3.917 12.839 5.6577 18.932 2.6113 5.8754-5.2227 6.637-14.797 3.9169-19.585-2.7201-4.7876-6.7459-3.6992-11.751-9.7925-4.7874-10.299-13.492-8.2207-17.626-6.5283z"/>
    <path d="m704.54 4960c1.9057-2.335 5.4271-2.8228 8.9484-1.0029 0.98242 2.8818 4.5038 5.9946 7.1019 7.2607 2.2553 2.7891 3.1257 4.8862 0.534 8.1372-18.932 21.761-33.017 37.521-49.641 60.666-9.2324 15.029-8.3091 27.75-2.308 39.085 4.497 7.8667 16.38 18.965 26.416 23.139 17.244 4.9922 33.796-0.40186 48.27-9.2583 15.668-18.714 30.413-37.429 46.081-56.144 2.6113-4.1016 6.3766-4.2798 8.0648-0.9956 2.1893 2.4863 3.6862 3.3564 5.6446 4.227 2.7301 1.187 4.537 3.5278 2.8817 6.3306-16.921 30.482-30.841 49.424-53.301 73.443-19.038 15.84-32.074 18.754-53.42 17.053-10.036-1.2202-20.534-2.4404-28.263 5.5723-30.442 28.767-54.082 53.355-65.013 109.84-14.876 76.882 86.29 135.19 121.92 153.17 38.548 19.447 72.234 33.641 123.17 29.056 47.269-4.2554 72.383-15.239 123.46-38.66 54.11-24.811 76.323-47.854 93.561-78.931 18.782-33.861 55.224-39.126 31.504-72.294 5.0216-3.3926 31.709 16.482 36.75 22.107 26.516 33.814-12.84-2.1362-16.066 22.096-4.6304 34.773-25.543 57.198-57.886 93.784-30.553 34.562-125.79 83.799-183 91.509-57.218 7.7095-96.219-0.75342-131.72-13.903-36.851-13.648-104.68-46.707-140.34-93.75-26.592-35.076-41.3-81.095-14.865-153.96 12.846-30.06 31.23-60.581 47.769-92.026 6.3571-8.4009 8.5596-15.879 5.6843-25.665-3.2905-6.8843-7.9659-11.922-8.4868-19.73-1.0753-17.675 5.6971-37.658 13.393-47.946 14.797-16.43 38.366-45.785 53.163-62.214v4.88e-4z"/>
   </g>
   <path d="m937.65 4829.9c-4.3522 3.2642-2.8289 16.321 2.6113 20.238 2.3937 5.6577 0.87042 9.1392 3.917 13.056 3.0465 3.917 12.839 5.6582 18.932 2.6113 5.8754-5.2227 6.6371-14.797 3.9169-19.584-2.7201-4.7876-6.7458-3.6997-11.751-9.7925-4.7874-10.299-13.492-8.2212-17.626-6.5283z" fill="url(#i)"/>
   <path d="m836.17 4776.1c7.834 5.0054 17.626 1.5234 20.891-3.917 1.4465-4.0962-0.49585-15.964-11.098-15.668-6.9636-1.3057-7.6164-10.881-18.932-12.404-9.1396 0-13.057 9.7925-13.71 15.015 0 6.0928 1.9585 11.533 7.1811 16.32 6.9636 1.7412 11.316-1.0879 15.668 0.65283z" fill="url(#h)"/>
   <path d="m911.41 4832.2l5.8755-3.917c-4.1346-5.6577-12.839-17.844-18.932-23.502-6.9635-5.8755-24.372-5.2227-35.906 2.6113-104.1 58.929-149.72 119.25-180.83 150.8l9.1396 9.1396c64.63-69.418 113.16-118.16 178.88-154.07 5.8755-2.8291 18.279-6.3106 26.766 0 4.1346 4.5698 12.186 14.362 15.015 18.932z" fill="url(#k)"/>
   <path d="m692.77 4988.4c-17.39 24.089-28.56 41.273-32.259 52.655-5.5394 23.338-0.224 34.054 5.777 45.389 4.4971 7.8672 13.676 11.421 23.712 15.595 17.244 4.9922 38.477 5.3613 51.105-5.3418 19.361-16.868 24.524-22.703 37.64-37.442-16.921 30.482-35.577 48.555-50.652 54.11-16.268 1.9912-25.743 3.9824-51.705-1.4121-10.036-1.2202-58.368 79.71-69.544 90.224 7.104-18.212 58.117-89.755 55.241-99.541-3.2905-6.8843-6.6603-11.922-9.9509-19.73-4.7682-15.829-4.4314-28.518-1.3521-39.73 2.7954-9.044 18.153-31.669 41.986-54.776z" fill="#fff" opacity=".23"/>
   <path d="m703.77 4960.5c1.9057-2.3345 5.4271-2.8228 8.9484-1.0024 0.98242 2.8818 4.5038 5.9941 7.1019 7.2602 2.2553 2.7896 3.1258 4.8862 0.53412 8.1372-18.932 21.761-33.017 37.521-49.641 60.667-9.2324 15.028-8.3092 27.749-2.3081 39.085 4.497 7.8667 16.38 18.965 26.416 23.139 17.244 4.9922 33.796-0.40234 48.27-9.2588 15.668-18.714 30.413-37.429 46.081-56.143 2.6113-4.102 6.3766-4.2798 8.0648-0.9956 2.1893 2.4858 3.6862 3.3564 5.6446 4.227 2.7301 1.1865 4.537 3.5273 2.8817 6.3301-16.921 30.482-30.841 49.424-53.301 73.443-19.038 15.84-32.074 18.754-53.42 17.053-10.036-1.2202-20.534-2.4399-28.263 5.5723-30.442 28.767-54.082 53.356-65.013 109.84-14.876 76.882 86.29 135.19 121.92 153.17 38.548 19.447 72.234 33.641 123.17 29.055 47.269-4.2549 72.383-15.239 123.46-38.66 54.11-24.81 76.323-47.854 93.561-78.931 18.782-33.862 27.804-73.262 4.0832-106.43-2.4356-13.256 23.732-13.861 29.391-13 26.516 33.814 21.94 67.108 18.714 91.34-4.6302 34.773-25.543 57.198-57.886 93.784-30.553 34.562-125.79 83.799-183 91.509-57.218 7.71-96.219-0.75293-131.72-13.902-36.851-13.648-104.68-46.708-140.34-93.75-26.592-35.076-41.3-81.095-14.865-153.96 12.845-30.06 31.23-60.581 47.769-92.026 6.3571-8.4014 8.5596-15.879 5.6843-25.665-3.2905-6.8848-7.9659-11.922-8.4868-19.73-1.0753-17.675 5.697-37.657 13.393-47.946 14.798-16.429 38.366-45.784 53.163-62.214z" fill="url(#l)"/>
  </g>
  <path d="m1170.7 5260.7a51.434 49.403 0 1 1 -102.87 0 51.434 49.403 0 1 1 102.87 0z" fill="#ababab" stroke="#000" stroke-width="3.712"/>
  <path d="m1166.9 5260.5a48.496 47.809 0 1 1 -96.992 0 48.496 47.809 0 1 1 96.992 0z" fill="url(#m)"/>
  <path d="m1154.5 5255.5a35.242 33.201 0 1 1 -70.483 0 35.242 33.201 0 1 1 70.483 0z" fill="#9f999b" stroke="#000" stroke-width="9.111"/>
  <path d="m1154.6 5255.9a35.242 33.201 0 1 1 -70.483 0 35.242 33.201 0 1 1 70.483 0z" fill="url(#n)"/>
  <path d="m1123.3 5254.3a4.2434 4.2434 0 1 1 -8.4868 0 4.2434 4.2434 0 1 1 8.4868 0z"/>
  <path d="m1097.1 5237c-9.0741 7.102-8.7804 25.404-4.8962 31.336 20.129-7.3989 35.035-7.9429 53.206 0.979 4.0258-7.5073 5.7666-17.626-0.97925-28.724-22.322 7.2207-32.856 3.96-47.33-3.5908z" fill="#fff" fill-rule="evenodd" opacity=".23"/>
 </g>
 <g fill-rule="evenodd" stroke="#000">
  <path d="m86.404 53.711c0 21.351-15.502 38.66-34.625 38.66s-34.625-17.308-34.625-38.66c0-21.351 15.502-38.66 34.625-38.66 19.013 0 34.47 17.118 34.624 38.347" fill="#4f3217" stroke-width="5"/>
  <path d="m38.81 42.708s16.104 17.022 32.633 15.694c16.554-1.3301 27.705-9.0433 27.705-9.0433s-8.5375-46.539-46.679-47.309c-29.86-0.62546-44.563 28.039-48.921 47.309-4.4142 19.518 1.6412 19.444 8.0934 17.781 6.4522-1.6627 27.168-24.432 27.168-24.432z" stroke-width="4.079"/>
 </g>
</svg>
